<?xml version="1.0" encoding="UTF-8" standalone="no"?>
<!DOCTYPE svg PUBLIC "-//W3C//DTD SVG 1.1//EN"
 "http://www.w3.org/Graphics/SVG/1.1/DTD/svg11.dtd">
<!-- Generated by graphviz version 12.2.1 (0)
 -->
<!-- Title: TamperSegmentationModel Pages: 1 -->
<svg width="1445pt" height="1301pt"
 viewBox="0.00 0.00 1445.00 1300.62" xmlns="http://www.w3.org/2000/svg" xmlns:xlink="http://www.w3.org/1999/xlink">
<g id="graph0" class="graph" transform="scale(1 1) rotate(0) translate(4 1296.62)">
<title>TamperSegmentationModel</title>
<polygon fill="white" stroke="none" points="-4,4 -4,-1296.62 1441,-1296.62 1441,4 -4,4"/>
<text text-anchor="middle" x="718.5" y="-1275.33" font-family="Helvetica,sans-Serif" font-size="14.00">TamperSegmentationModel (ResNet34 backbone)</text>
<!-- Input -->
<g id="node1" class="node">
<title>Input</title>
<polygon fill="#e8f1ff" stroke="none" points="105.88,-1068 105.88,-1121 224.12,-1121 224.12,-1068 105.88,-1068"/>
<text text-anchor="start" x="149.25" y="-1104.55" font-family="Helvetica,sans-Serif" font-weight="bold" font-size="11.00">Input</text>
<text text-anchor="start" x="112.88" y="-1078.05" font-family="Helvetica,sans-Serif" font-size="11.00">B × 3 × 256 × 256</text>
<polygon fill="none" stroke="black" points="105.88,-1068 105.88,-1121 224.12,-1121 224.12,-1068 105.88,-1068"/>
</g>
<!-- InputProj -->
<g id="node2" class="node">
<title>InputProj</title>
<polygon fill="#f1f6ff" stroke="none" points="102.5,-852.25 102.5,-930.75 227.5,-930.75 227.5,-852.25 102.5,-852.25"/>
<text text-anchor="start" x="116.25" y="-914.3" font-family="Helvetica,sans-Serif" font-weight="bold" font-size="11.00">Input projection</text>
<text text-anchor="start" x="110.62" y="-887.8" font-family="Helvetica,sans-Serif" font-size="11.00">Conv3×3, BN, ReLU</text>
<text text-anchor="start" x="109.5" y="-862.3" font-family="Helvetica,sans-Serif" font-size="11.00">B × 64 × 256 × 256</text>
<polygon fill="none" stroke="black" points="102.5,-852.25 102.5,-930.75 227.5,-930.75 227.5,-852.25 102.5,-852.25"/>
</g>
<!-- Input&#45;&gt;InputProj -->
<g id="edge1" class="edge">
<title>Input&#45;&gt;InputProj</title>
<path fill="none" stroke="#cc4d4d" stroke-width="2" d="M165,-1064.23C165,-1025.36 165,-986.49 165,-947.62"/>
<polygon fill="#cc4d4d" stroke="#cc4d4d" stroke-width="2" points="168.5,-947.74 165,-937.74 161.5,-947.74 168.5,-947.74"/>
</g>
<!-- Stem -->
<g id="node3" class="node">
<title>Stem</title>
<polygon fill="#f9fcff" stroke="none" points="448.62,-845.5 448.62,-937.5 573.62,-937.5 573.62,-845.5 448.62,-845.5"/>
<text text-anchor="start" x="495" y="-921.05" font-family="Helvetica,sans-Serif" font-weight="bold" font-size="11.00">Stem</text>
<text text-anchor="start" x="465" y="-894.55" font-family="Helvetica,sans-Serif" font-size="11.00">Conv7×7 stride2</text>
<text text-anchor="start" x="485.62" y="-881.05" font-family="Helvetica,sans-Serif" font-size="11.00">BN, ReLU</text>
<text text-anchor="start" x="455.62" y="-855.55" font-family="Helvetica,sans-Serif" font-size="11.00">B × 64 × 128 × 128</text>
<polygon fill="none" stroke="black" points="448.62,-845.5 448.62,-937.5 573.62,-937.5 573.62,-845.5 448.62,-845.5"/>
</g>
<!-- InputProj&#45;&gt;Stem -->
<g id="edge2" class="edge">
<title>InputProj&#45;&gt;Stem</title>
<path fill="none" stroke="#cc4d4d" stroke-width="2" d="M235.22,-891.5C290.79,-891.5 368.95,-891.5 427.73,-891.5"/>
<polygon fill="#cc4d4d" stroke="#cc4d4d" stroke-width="2" points="427.69,-895 437.69,-891.5 427.69,-888 427.69,-895"/>
</g>
<!-- Dec1 -->
<g id="node12" class="node">
<title>Dec1</title>
<polygon fill="#f1f6ff" stroke="none" points="72.88,-385.5 72.88,-477.5 257.12,-477.5 257.12,-385.5 72.88,-385.5"/>
<text text-anchor="start" x="103.12" y="-461.05" font-family="Helvetica,sans-Serif" font-weight="bold" font-size="11.00">DecoderBlock</text>
<text text-anchor="start" x="187.88" y="-461.05" font-family="Helvetica,sans-Serif" font-size="11.00"> (dec1)</text>
<text text-anchor="start" x="81.38" y="-434.55" font-family="Helvetica,sans-Serif" font-size="11.00">Upsample ×2 → Conv1×1 (64)</text>
<text text-anchor="start" x="79.88" y="-421.05" font-family="Helvetica,sans-Serif" font-size="11.00">Concat skip1 (64) → ConvBlock</text>
<text text-anchor="start" x="109.5" y="-395.55" font-family="Helvetica,sans-Serif" font-size="11.00">B × 64 × 256 × 256</text>
<polygon fill="none" stroke="black" points="72.88,-385.5 72.88,-477.5 257.12,-477.5 257.12,-385.5 72.88,-385.5"/>
</g>
<!-- InputProj&#45;&gt;Dec1 -->
<g id="edge17" class="edge">
<title>InputProj&#45;&gt;Dec1</title>
<path fill="none" stroke="#4a74c1" stroke-width="2" stroke-dasharray="5,2" d="M165,-848.47C165,-766.76 165,-588.83 165,-493.98"/>
<polygon fill="#4a74c1" stroke="#4a74c1" stroke-width="2" points="168.5,-494.19 165,-484.19 161.5,-494.19 168.5,-494.19"/>
<text text-anchor="middle" x="153.38" y="-660.2" font-family="Times,serif" font-size="14.00">skip1</text>
</g>
<!-- Layer1 -->
<g id="node4" class="node">
<title>Layer1</title>
<polygon fill="#f1f6ff" stroke="none" points="736.62,-852.25 736.62,-930.75 848.12,-930.75 848.12,-852.25 736.62,-852.25"/>
<text text-anchor="start" x="771.75" y="-914.3" font-family="Helvetica,sans-Serif" font-weight="bold" font-size="11.00">Layer1</text>
<text text-anchor="start" x="743.62" y="-887.8" font-family="Helvetica,sans-Serif" font-size="11.00">ResNet blocks ×3</text>
<text text-anchor="start" x="743.62" y="-862.3" font-family="Helvetica,sans-Serif" font-size="11.00">B × 64 × 64 × 64</text>
<polygon fill="none" stroke="black" points="736.62,-852.25 736.62,-930.75 848.12,-930.75 848.12,-852.25 736.62,-852.25"/>
</g>
<!-- Stem&#45;&gt;Layer1 -->
<g id="edge3" class="edge">
<title>Stem&#45;&gt;Layer1</title>
<path fill="none" stroke="#cc4d4d" stroke-width="2" d="M581.51,-891.5C622.41,-891.5 674.18,-891.5 716.07,-891.5"/>
<polygon fill="#cc4d4d" stroke="#cc4d4d" stroke-width="2" points="715.99,-895 725.99,-891.5 715.99,-888 715.99,-895"/>
</g>
<!-- Dec2 -->
<g id="node11" class="node">
<title>Dec2</title>
<polygon fill="#f1f6ff" stroke="none" points="419,-385.5 419,-477.5 603.25,-477.5 603.25,-385.5 419,-385.5"/>
<text text-anchor="start" x="449.25" y="-461.05" font-family="Helvetica,sans-Serif" font-weight="bold" font-size="11.00">DecoderBlock</text>
<text text-anchor="start" x="534" y="-461.05" font-family="Helvetica,sans-Serif" font-size="11.00"> (dec2)</text>
<text text-anchor="start" x="427.5" y="-434.55" font-family="Helvetica,sans-Serif" font-size="11.00">Upsample ×2 → Conv1×1 (64)</text>
<text text-anchor="start" x="426" y="-421.05" font-family="Helvetica,sans-Serif" font-size="11.00">Concat skip2 (64) → ConvBlock</text>
<text text-anchor="start" x="455.62" y="-395.55" font-family="Helvetica,sans-Serif" font-size="11.00">B × 64 × 128 × 128</text>
<polygon fill="none" stroke="black" points="419,-385.5 419,-477.5 603.25,-477.5 603.25,-385.5 419,-385.5"/>
</g>
<!-- Stem&#45;&gt;Dec2 -->
<g id="edge16" class="edge">
<title>Stem&#45;&gt;Dec2</title>
<path fill="none" stroke="#4a74c1" stroke-width="2" stroke-dasharray="5,2" d="M511.12,-841.69C511.12,-757.26 511.12,-586.22 511.12,-493.92"/>
<polygon fill="#4a74c1" stroke="#4a74c1" stroke-width="2" points="514.63,-494.19 511.13,-484.19 507.63,-494.19 514.63,-494.19"/>
<text text-anchor="middle" x="499.5" y="-656.83" font-family="Times,serif" font-size="14.00">skip2</text>
</g>
<!-- Layer2 -->
<g id="node5" class="node">
<title>Layer2</title>
<polygon fill="#f1f6ff" stroke="none" points="1017.88,-845.5 1017.88,-937.5 1136.12,-937.5 1136.12,-845.5 1017.88,-845.5"/>
<text text-anchor="start" x="1056.38" y="-921.05" font-family="Helvetica,sans-Serif" font-weight="bold" font-size="11.00">Layer2</text>
<text text-anchor="start" x="1028.25" y="-894.55" font-family="Helvetica,sans-Serif" font-size="11.00">ResNet blocks ×4</text>
<text text-anchor="start" x="1053.38" y="-881.05" font-family="Helvetica,sans-Serif" font-size="11.00">stride=2</text>
<text text-anchor="start" x="1024.88" y="-855.55" font-family="Helvetica,sans-Serif" font-size="11.00">B × 128 × 32 × 32</text>
<polygon fill="none" stroke="black" points="1017.88,-845.5 1017.88,-937.5 1136.12,-937.5 1136.12,-845.5 1017.88,-845.5"/>
</g>
<!-- Layer1&#45;&gt;Layer2 -->
<g id="edge4" class="edge">
<title>Layer1&#45;&gt;Layer2</title>
<path fill="none" stroke="#cc4d4d" stroke-width="2" d="M856.1,-891.5C897.69,-891.5 952.6,-891.5 997.14,-891.5"/>
<polygon fill="#cc4d4d" stroke="#cc4d4d" stroke-width="2" points="996.98,-895 1006.98,-891.5 996.98,-888 996.98,-895"/>
</g>
<!-- Dec3 -->
<g id="node10" class="node">
<title>Dec3</title>
<polygon fill="#f1f6ff" stroke="none" points="700.25,-385.5 700.25,-477.5 884.5,-477.5 884.5,-385.5 700.25,-385.5"/>
<text text-anchor="start" x="730.5" y="-461.05" font-family="Helvetica,sans-Serif" font-weight="bold" font-size="11.00">DecoderBlock</text>
<text text-anchor="start" x="815.25" y="-461.05" font-family="Helvetica,sans-Serif" font-size="11.00"> (dec3)</text>
<text text-anchor="start" x="708.75" y="-434.55" font-family="Helvetica,sans-Serif" font-size="11.00">Upsample ×2 → Conv1×1 (64)</text>
<text text-anchor="start" x="707.25" y="-421.05" font-family="Helvetica,sans-Serif" font-size="11.00">Concat skip3 (64) → ConvBlock</text>
<text text-anchor="start" x="743.62" y="-395.55" font-family="Helvetica,sans-Serif" font-size="11.00">B × 64 × 64 × 64</text>
<polygon fill="none" stroke="black" points="700.25,-385.5 700.25,-477.5 884.5,-477.5 884.5,-385.5 700.25,-385.5"/>
</g>
<!-- Layer1&#45;&gt;Dec3 -->
<g id="edge15" class="edge">
<title>Layer1&#45;&gt;Dec3</title>
<path fill="none" stroke="#4a74c1" stroke-width="2" stroke-dasharray="5,2" d="M792.38,-848.47C792.38,-766.76 792.38,-588.83 792.38,-493.98"/>
<polygon fill="#4a74c1" stroke="#4a74c1" stroke-width="2" points="795.88,-494.19 792.38,-484.19 788.88,-494.19 795.88,-494.19"/>
<text text-anchor="middle" x="780.75" y="-660.2" font-family="Times,serif" font-size="14.00">skip3</text>
</g>
<!-- Layer3 -->
<g id="node6" class="node">
<title>Layer3</title>
<polygon fill="#f1f6ff" stroke="none" points="1290.12,-845.5 1290.12,-937.5 1408.38,-937.5 1408.38,-845.5 1290.12,-845.5"/>
<text text-anchor="start" x="1328.62" y="-921.05" font-family="Helvetica,sans-Serif" font-weight="bold" font-size="11.00">Layer3</text>
<text text-anchor="start" x="1300.5" y="-894.55" font-family="Helvetica,sans-Serif" font-size="11.00">ResNet blocks ×6</text>
<text text-anchor="start" x="1325.62" y="-881.05" font-family="Helvetica,sans-Serif" font-size="11.00">stride=2</text>
<text text-anchor="start" x="1297.12" y="-855.55" font-family="Helvetica,sans-Serif" font-size="11.00">B × 256 × 16 × 16</text>
<polygon fill="none" stroke="black" points="1290.12,-845.5 1290.12,-937.5 1408.38,-937.5 1408.38,-845.5 1290.12,-845.5"/>
</g>
<!-- Layer2&#45;&gt;Layer3 -->
<g id="edge5" class="edge">
<title>Layer2&#45;&gt;Layer3</title>
<path fill="none" stroke="#cc4d4d" stroke-width="2" d="M1144.11,-891.5C1181.96,-891.5 1229.68,-891.5 1269.47,-891.5"/>
<polygon fill="#cc4d4d" stroke="#cc4d4d" stroke-width="2" points="1269.33,-895 1279.33,-891.5 1269.33,-888 1269.33,-895"/>
</g>
<!-- Dec4 -->
<g id="node9" class="node">
<title>Dec4</title>
<polygon fill="#f1f6ff" stroke="none" points="981.5,-385.5 981.5,-477.5 1172.5,-477.5 1172.5,-385.5 981.5,-385.5"/>
<text text-anchor="start" x="1015.12" y="-461.05" font-family="Helvetica,sans-Serif" font-weight="bold" font-size="11.00">DecoderBlock</text>
<text text-anchor="start" x="1099.88" y="-461.05" font-family="Helvetica,sans-Serif" font-size="11.00"> (dec4)</text>
<text text-anchor="start" x="990" y="-434.55" font-family="Helvetica,sans-Serif" font-size="11.00">Upsample ×2 → Conv1×1 (128)</text>
<text text-anchor="start" x="988.5" y="-421.05" font-family="Helvetica,sans-Serif" font-size="11.00">Concat skip4 (128) → ConvBlock</text>
<text text-anchor="start" x="1024.88" y="-395.55" font-family="Helvetica,sans-Serif" font-size="11.00">B × 128 × 32 × 32</text>
<polygon fill="none" stroke="black" points="981.5,-385.5 981.5,-477.5 1172.5,-477.5 1172.5,-385.5 981.5,-385.5"/>
</g>
<!-- Layer2&#45;&gt;Dec4 -->
<g id="edge14" class="edge">
<title>Layer2&#45;&gt;Dec4</title>
<path fill="none" stroke="#4a74c1" stroke-width="2" stroke-dasharray="5,2" d="M1077,-841.69C1077,-757.26 1077,-586.22 1077,-493.92"/>
<polygon fill="#4a74c1" stroke="#4a74c1" stroke-width="2" points="1080.5,-494.19 1077,-484.19 1073.5,-494.19 1080.5,-494.19"/>
<text text-anchor="middle" x="1065.38" y="-656.83" font-family="Times,serif" font-size="14.00">skip4</text>
</g>
<!-- Layer4 -->
<g id="node7" class="node">
<title>Layer4</title>
<polygon fill="#f1f6ff" stroke="none" points="1293.5,-615.5 1293.5,-707.5 1405,-707.5 1405,-615.5 1293.5,-615.5"/>
<text text-anchor="start" x="1328.62" y="-691.05" font-family="Helvetica,sans-Serif" font-weight="bold" font-size="11.00">Layer4</text>
<text text-anchor="start" x="1300.5" y="-664.55" font-family="Helvetica,sans-Serif" font-size="11.00">ResNet blocks ×3</text>
<text text-anchor="start" x="1325.62" y="-651.05" font-family="Helvetica,sans-Serif" font-size="11.00">stride=2</text>
<text text-anchor="start" x="1303.88" y="-625.55" font-family="Helvetica,sans-Serif" font-size="11.00">B × 512 × 8 × 8</text>
<polygon fill="none" stroke="black" points="1293.5,-615.5 1293.5,-707.5 1405,-707.5 1405,-615.5 1293.5,-615.5"/>
</g>
<!-- Layer3&#45;&gt;Layer4 -->
<g id="edge6" class="edge">
<title>Layer3&#45;&gt;Layer4</title>
<path fill="none" stroke="#cc4d4d" stroke-width="2" d="M1349.25,-841.54C1349.25,-802.47 1349.25,-763.4 1349.25,-724.33"/>
<polygon fill="#cc4d4d" stroke="#cc4d4d" stroke-width="2" points="1352.75,-724.39 1349.25,-714.39 1345.75,-724.39 1352.75,-724.39"/>
</g>
<!-- DeepMerge -->
<g id="node8" class="node">
<title>DeepMerge</title>
<polygon fill="#e2efff" stroke="none" points="1269.5,-385.5 1269.5,-477.5 1429,-477.5 1429,-385.5 1269.5,-385.5"/>
<text text-anchor="start" x="1303.88" y="-461.05" font-family="Helvetica,sans-Serif" font-weight="bold" font-size="11.00">Context merge</text>
<text text-anchor="start" x="1276.5" y="-434.55" font-family="Helvetica,sans-Serif" font-size="11.00">Upsample layer4 → 16×16</text>
<text text-anchor="start" x="1276.88" y="-421.05" font-family="Helvetica,sans-Serif" font-size="11.00">Conv1×1 reduce + concat</text>
<text text-anchor="start" x="1297.12" y="-395.55" font-family="Helvetica,sans-Serif" font-size="11.00">B × 256 × 16 × 16</text>
<polygon fill="none" stroke="black" points="1269.5,-385.5 1269.5,-477.5 1429,-477.5 1429,-385.5 1269.5,-385.5"/>
</g>
<!-- Layer4&#45;&gt;DeepMerge -->
<g id="edge7" class="edge">
<title>Layer4&#45;&gt;DeepMerge</title>
<path fill="none" stroke="#cc4d4d" stroke-width="2" d="M1349.25,-611.54C1349.25,-572.47 1349.25,-533.4 1349.25,-494.33"/>
<polygon fill="#cc4d4d" stroke="#cc4d4d" stroke-width="2" points="1352.75,-494.39 1349.25,-484.39 1345.75,-494.39 1352.75,-494.39"/>
</g>
<!-- DeepMerge&#45;&gt;Dec4 -->
<g id="edge8" class="edge">
<title>DeepMerge&#45;&gt;Dec4</title>
<path fill="none" stroke="#2e8b57" stroke-width="2" d="M1261.82,-431.5C1239.9,-431.5 1216,-431.5 1192.9,-431.5"/>
<polygon fill="#2e8b57" stroke="#2e8b57" stroke-width="2" points="1193.2,-428 1183.2,-431.5 1193.2,-435 1193.2,-428"/>
</g>
<!-- Dec4&#45;&gt;Dec3 -->
<g id="edge9" class="edge">
<title>Dec4&#45;&gt;Dec3</title>
<path fill="none" stroke="#2e8b57" stroke-width="2" d="M973.85,-431.5C951.52,-431.5 927.76,-431.5 905.07,-431.5"/>
<polygon fill="#2e8b57" stroke="#2e8b57" stroke-width="2" points="905.25,-428 895.25,-431.5 905.25,-435 905.25,-428"/>
</g>
<!-- Dec3&#45;&gt;Dec2 -->
<g id="edge10" class="edge">
<title>Dec3&#45;&gt;Dec2</title>
<path fill="none" stroke="#2e8b57" stroke-width="2" d="M692.66,-431.5C670.4,-431.5 646.61,-431.5 623.86,-431.5"/>
<polygon fill="#2e8b57" stroke="#2e8b57" stroke-width="2" points="624,-428 614,-431.5 624,-435 624,-428"/>
</g>
<!-- Dec2&#45;&gt;Dec1 -->
<g id="edge11" class="edge">
<title>Dec2&#45;&gt;Dec1</title>
<path fill="none" stroke="#2e8b57" stroke-width="2" d="M411.16,-431.5C369.51,-431.5 320.85,-431.5 277.91,-431.5"/>
<polygon fill="#2e8b57" stroke="#2e8b57" stroke-width="2" points="278.1,-428 268.1,-431.5 278.1,-435 278.1,-428"/>
</g>
<!-- Head -->
<g id="node13" class="node">
<title>Head</title>
<polygon fill="#d1ecff" stroke="none" points="105.88,-195 105.88,-248 224.12,-248 224.12,-195 105.88,-195"/>
<text text-anchor="start" x="118.12" y="-231.55" font-family="Helvetica,sans-Serif" font-weight="bold" font-size="11.00">Head 1×1 Conv</text>
<text text-anchor="start" x="112.88" y="-205.05" font-family="Helvetica,sans-Serif" font-size="11.00">B × 1 × 256 × 256</text>
<polygon fill="none" stroke="black" points="105.88,-195 105.88,-248 224.12,-248 224.12,-195 105.88,-195"/>
</g>
<!-- Dec1&#45;&gt;Head -->
<g id="edge12" class="edge">
<title>Dec1&#45;&gt;Head</title>
<path fill="none" stroke="#2e8b57" stroke-width="2" d="M165,-381.68C165,-342.71 165,-303.75 165,-264.78"/>
<polygon fill="#2e8b57" stroke="#2e8b57" stroke-width="2" points="168.5,-264.88 165,-254.88 161.5,-264.88 168.5,-264.88"/>
</g>
<!-- Output -->
<g id="node14" class="node">
<title>Output</title>
<polygon fill="#e8f1ff" stroke="none" points="105.88,-4 105.88,-57 224.12,-57 224.12,-4 105.88,-4"/>
<text text-anchor="start" x="123.38" y="-40.55" font-family="Helvetica,sans-Serif" font-weight="bold" font-size="11.00">Tamper logits</text>
<text text-anchor="start" x="112.88" y="-14.05" font-family="Helvetica,sans-Serif" font-size="11.00">B × 1 × 256 × 256</text>
<polygon fill="none" stroke="black" points="105.88,-4 105.88,-57 224.12,-57 224.12,-4 105.88,-4"/>
</g>
<!-- Head&#45;&gt;Output -->
<g id="edge13" class="edge">
<title>Head&#45;&gt;Output</title>
<path fill="none" stroke="#2e8b57" stroke-width="2" d="M165,-191.04C165,-151.93 165,-112.81 165,-73.7"/>
<polygon fill="#2e8b57" stroke="#2e8b57" stroke-width="2" points="168.5,-73.74 165,-63.74 161.5,-73.74 168.5,-73.74"/>
</g>
<!-- Legend -->
<g id="node15" class="node">
<title>Legend</title>
<text text-anchor="start" x="9" y="-1253.88" font-family="Helvetica,sans-Serif" font-weight="bold" font-size="10.00">Legend</text>
<text text-anchor="start" x="9" y="-1239.12" font-family="Helvetica,sans-Serif" font-size="10.00">Red edges: encoder (ResNet34) stages</text>
<text text-anchor="start" x="9" y="-1225.38" font-family="Helvetica,sans-Serif" font-size="10.00">Green edges: decoder blocks</text>
<text text-anchor="start" x="9" y="-1211.62" font-family="Helvetica,sans-Serif" font-size="10.00">Blue dashed edges: skip connections (concat before ConvBlock)</text>
<text text-anchor="start" x="9" y="-1197.88" font-family="Helvetica,sans-Serif" font-size="10.00">DeepMerge combines Layer3 and upsampled Layer4 (context)</text>
</g>
</g>
</svg>
